<svg xmlns="http://www.w3.org/2000/svg" viewBox="0 0 12 12" fill="none">
<path d="M9.77246 5.64799C9.7202 5.70043 9.65811 5.74204 9.58973 5.77043C9.52136 5.79882 9.44806 5.81343 9.37402 5.81343C9.29999 5.81343 9.22669 5.79882 9.15831 5.77043C9.08994 5.74204 9.02784 5.70043 8.97558 5.64799L6.56199 3.23439V10.125C6.56199 10.2742 6.50273 10.4173 6.39724 10.5228C6.29175 10.6283 6.14868 10.6875 5.99949 10.6875C5.85031 10.6875 5.70723 10.6283 5.60174 10.5228C5.49625 10.4173 5.43699 10.2742 5.43699 10.125V3.23439L3.02246 5.64799C2.91679 5.75366 2.77347 5.81303 2.62402 5.81303C2.47458 5.81303 2.33126 5.75366 2.22559 5.64799C2.11991 5.54232 2.06055 5.39899 2.06055 5.24955C2.06055 5.10011 2.11991 4.95679 2.22559 4.85111L5.60058 1.47611C5.65284 1.42367 5.71494 1.38206 5.78331 1.35367C5.85168 1.32528 5.92499 1.31067 5.99902 1.31067C6.07306 1.31067 6.14636 1.32528 6.21473 1.35367C6.28311 1.38206 6.3452 1.42367 6.39746 1.47611L9.77246 4.85111C9.8249 4.90337 9.86651 4.96547 9.8949 5.03384C9.92329 5.10221 9.9379 5.17552 9.9379 5.24955C9.9379 5.32358 9.92329 5.39689 9.8949 5.46526C9.86651 5.53363 9.8249 5.59573 9.77246 5.64799Z" fill="#B3261E"/>
</svg>