<svg width="12" height="13" viewBox="0 0 12 13" fill="none" xmlns="http://www.w3.org/2000/svg">
<g id="vuesax/linear/house">
<g id="house">
<path id="Vector" d="M1 11.5H11" stroke="#757575" stroke-miterlimit="10" stroke-linecap="round" stroke-linejoin="round"/>
<path id="Vector_2" d="M1.4751 11.5001L1.5001 5.48512C1.5001 5.18012 1.6451 4.89014 1.8851 4.70014L5.3851 1.97514C5.7451 1.69514 6.2501 1.69514 6.6151 1.97514L10.1151 4.69514C10.3601 4.88514 10.5001 5.17512 10.5001 5.48512V11.5001" stroke="#757575" stroke-miterlimit="10" stroke-linejoin="round"/>
<path id="Vector_3" d="M6.5 9H5.5C5.085 9 4.75 9.335 4.75 9.75V11.5H7.25V9.75C7.25 9.335 6.915 9 6.5 9Z" stroke="#757575" stroke-miterlimit="10" stroke-linejoin="round"/>
<path id="Vector_4" d="M4.75 7.375H3.75C3.475 7.375 3.25 7.15 3.25 6.875V6.125C3.25 5.85 3.475 5.625 3.75 5.625H4.75C5.025 5.625 5.25 5.85 5.25 6.125V6.875C5.25 7.15 5.025 7.375 4.75 7.375Z" stroke="#757575" stroke-miterlimit="10" stroke-linejoin="round"/>
<path id="Vector_5" d="M8.25 7.375H7.25C6.975 7.375 6.75 7.15 6.75 6.875V6.125C6.75 5.85 6.975 5.625 7.25 5.625H8.25C8.525 5.625 8.75 5.85 8.75 6.125V6.875C8.75 7.15 8.525 7.375 8.25 7.375Z" stroke="#757575" stroke-miterlimit="10" stroke-linejoin="round"/>
<path id="Vector_6" d="M9.50016 4L9.48516 2.5H7.28516" stroke="#757575" stroke-miterlimit="10" stroke-linecap="round" stroke-linejoin="round"/>
</g>
</g>
</svg>
